/* XPM */
static char *_e6887c2335b45d281284a439659e521FbgiM5wJ36Z0yPZJ[] = {
/* columns rows colors chars-per-pixel */
"32 32 16 1 ",
"  c #252525",
". c #282828",
"X c #2D2D2D",
"o c gray20",
"O c #393939",
"+ c #3E3E3E",
"@ c #565656",
"# c #5B5B5B",
"$ c gray37",
"% c gray45",
"& c gray49",
"* c #939393",
"= c #9B9B9B",
"- c #B7B7B7",
"; c gray72",
": c gray",
/* pixels */
"############################$$#X",
"#oooooooooooooooooooooooooooooo.",
"#oooooooooooooooooooooooooooooo.",
"#oooo$=;-=$oooooooooo$=;-=$oooo.",
"#ooo&:*@O+#@oooooooo&:*@O+#@ooo.",
"#oo$:%ooooooXoooooo$:%ooooooXoo.",
"#oo=*oooooooXXooooo=*oooooooXXo.",
"#oo-@oooooooo.ooooo-@oooooooo.o.",
"#oo-Ooooooooo ooooo-Ooooooooo o.",
"#oo=+oooooooX ooooo=+oooooooX o.",
"#oo##ooooooo..ooooo##ooooooo..o.",
"#ooo@ooooooX Xoooooo@ooooooX oo.",
"#ooooXXooX. .ooooooooXXooX. XooX",
"#oooooX.  .XooooooooooX.  .Xooo.",
"#oooooooooooooooooooooooooooooo.",
"#oooooooooooooooooooooooooooooo.",
"#oooooooooooooooooooooooooooooo.",
"#oooooooooooooooooooooooooooooo.",
"#oooooooooooooooooooooooooooooo.",
"#oooo$=;-=$oooooooooo$=;-=$oooo.",
"#ooo&:*@O+#@oooooooo&:*@O+#@ooo.",
"#oo$:%ooooooXoooooo$:%ooooooXoo.",
"#oo=*oooooooXXooooo=*oooooooXXo.",
"#oo-@oooooooo.ooooo-@oooooooo.o.",
"#oo-Ooooooooo ooooo-Ooooooooo oX",
"#oo=+oooooooX ooooo=+oooooooo o.",
"#oo##ooooooo..ooooo##ooooooo..o.",
"#ooo@ooooooX Xoooooo@ooooooX Xo.",
"#ooooXXooX. .ooooooooXXooX. .oo.",
"#oooooX.  .XooooooooooX.  .Xooo.",
"#oooooooooooooooooooooooooooooo.",
"#...........X.X.....X.......X.X."
};
