/* XPM */
static char *_b0fda4ded0142a78fd1abc1c37d9f5aJCa7asOgu6xOorpj[] = {
/* columns rows colors chars-per-pixel */
"32 32 27 1 ",
"  c #0000B3",
". c #0000B7",
"X c #0000C6",
"o c #0000C9",
"O c #0000D8",
"+ c #0000D9",
"@ c #0000E3",
"# c #0000E8",
"$ c #0000EB",
"% c #0000EC",
"& c #0000FB",
"* c blue",
"= c #0808FF",
"- c #0F0FFF",
"; c #2C2CF4",
": c #2C2CF5",
"> c #2C2CFF",
", c #3030FD",
"< c #3232FE",
"1 c #3636FE",
"2 c #5151FC",
"3 c #5D5DFD",
"4 c #7979FC",
"5 c #8383FB",
"6 c #A4A4FB",
"7 c #A7A7FB",
"8 c #AFAFFB",
/* pixels */
"<<<<<<<<<<<<<<<<<<<<<<<<<<<<<<<+",
"<******************************+",
"<******************************+",
"<****157751**********15775<****+",
"<***384>=->;********384>=-<;***+",
"<**182******@******182******@**+",
"<**54*******%#*****54*******##*+",
"<**7>*******&o*****7>********X*+",
"<**7=******** *****7=*******&.*+",
"<**4-*******%.*****5-*******#.*+",
"<**1<*******XX*****<<*******oo*+",
"<***;******+ #******;******+ #*+",
"<****@#*&#o +********@%&*%X +**+",
"<*****#X..o#**********#o .X#***+",
"<******************************+",
"<******************************+",
"<******************************+",
"<******************************+",
"<******************************+",
"<****15775<**********15775<****+",
"<***384>=->;********384>=-<;***+",
"<**182******#******182******@**+",
"<**54*******##*****54*******##*+",
"<**7>*******&X*****7>********X*+",
"<**7=*******& *****7=*******&.*+",
"<**5-*******%.*****5-*******#.*+",
"<**<<*******oX*****<<*******oo*+",
"<***;******+ %******;******+ #*+",
"<****@#&*#o O********@%&*%X +**+",
"<*****#X. X%**********#o .X#***+",
"<******************************+",
"<+++++++++++++++++++++++++++++++"
};
