/* XPM */
static char *_223568d749c411b8aa3e3ed7b48406amRGWakLJEcZ0CqRL[] = {
/* columns rows colors chars-per-pixel */
"544 32 19 1 ",
"  c #7E7E7E",
". c #808080",
"X c #8B8B8B",
"o c gray55",
"O c #989898",
"+ c #9F9F9F",
"@ c gray64",
"# c #A5A5A5",
"$ c gray69",
"% c gray70",
"& c gray71",
"* c gray72",
"= c #B9B9B9",
"- c gray76",
"; c gray79",
": c #CDCDCD",
"> c #D7D7D7",
", c #E2E2E2",
"< c #E4E4E4",
/* pixels */
"-------------------------------O-------------------------------O-------------------------------O-------------------------------O-------------------------------O-------------------------------O-------------------------------O-------------------------------O-------------------------------O-------------------------------O-------------------------------O-------------------------------O-------------------------------O-------------------------------O-------------------------------O-------------------------------O-------------------------------O",
"-%%%%%%%%%%%%%%%%%%%%%%%%%%%%%%O-%%%%%%%%%%%%%%%%%%%%%%%%%%%%%%O-%%%%%%%%%%%%%%%%%%%%%%%%%%%%%%O-%%%%%%%%%%%%%%%%%%%%%%%%%%%%%%O-%%%%%%%%%%%%%%%%%%%%%%%%%%%%%%O-%%%%%%%%%%%%%%%%%%%%%%%%%%%%%%O-%%%%%%%%%%%%%%%%%%%%%%%%%%%%%%O-%%%%%%%%%%%%%%%%%%%%%%%%%%%%%%O-%%%%%%%%%%%%%%%%%%%%%%%%%%%%%%O-%%%%%%%%%%%%%%%%%%%%%%%%%%%%%%O-%%%%%%%%%%%%%%%%%%%%%%%%%%%%%%O-%%%%%%%%%%%%%%%%%%%%%%%%%%%%%%O-%%%%%%%%%%%%%%%%%%%%%%%%%%%%%%O-%%%%%%%%%%%%%%%%%%%%%%%%%%%%%%O-%%%%%%%%%%%%%%%%%%%%%%%%%%%%%%O-%%%%%%%%%%%%%%%%%%%%%%%%%%%%%%O-%%%%%%%%%%%%%%%%%%%%%%%%%%%%%%O",
"-%%%%%%%%%%%%%%%%%%%%%&&%%%%%%%O-%%%%%%%%%%%%%%%%%%%%%%%%%%%%%%O-%%%%%&&%%%%%%%%%%%%%%%%&&%%%%%O-%%%%%%%%%%%%%%%%%%%%%&&%%%%%%%O-%%%%%%%%%%%%%%%%%%%%%%%%%%%%%%O-%%%%%&&%%%%%%%%%%%%%%%%&&%%%%%O-%%%%%%%%%%%%%%%%%%%%%&&%%%%%%%O-%%%%%%%%%%%%%%%%%%%%%%%%%%%%%%O-%%%%%&&%%%%%%%%%%%%%%%%&&%%%%%O-%%%%%%%%%%%%%%%%%%%%%&&%%%%%%%O-%%%%%%%%%%%%%%%%%%%%%%%%%%%%%%O-%%%%%&&%%%%%%%%%%%%%%%%&&%%%%%O-%%%%%%%%%%%%%%%%%%%%%&&%%%%%%%O-%%%%%%%%%%%%%%%%%%%%%%%%%%%%%%O-%%%%%&&%%%%%%%%%%%%%%%%&&%%%%%O-%%%%%%%%%%%%%%%%%%%%%&&%%%%%%%O-%%%%%%%%%%%%%%%%%%%%%%%%%%%%%%O",
"-%%%%->,,>-&%%%%%%%%%-><,>-%%%%O-%%%%->,,>-%%%%%%%%%%->,,>-&%%%O-%%%%-><,>-%%%%%%%%%%->,,>=%%%%O-%%%%->,,>-&%%%%%%%%%-><,>-%%%%O-%%%%->,,>-%%%%%%%%%%->,,>-&%%%O-%%%%-><,>-%%%%%%%%%%->,,>=%%%%O-%%%%->,,>-&%%%%%%%%%-><,>-%%%%O-%%%%->,,>-%%%%%%%%%%->,,>-&%%%O-%%%%-><,>-%%%%%%%%%%->,,>=%%%%O-%%%%->,,>-&%%%%%%%%%-><,>-%%%%O-%%%%->,,>-%%%%%%%%%%->,,>-&%%%O-%%%%-><,>-%%%%%%%%%%->,,>=%%%%O-%%%%->,,>-&%%%%%%%%%-><,>-%%%%O-%%%%->,,>-%%%%%%%%%%->,,>-&%%%O-%%%%-><,>-%%%%%%%%%%->,,>=%%%%O-%%%%->,,>-&%%%%%%%%%-><,>-%%%%O-%%%%->,,>-%%%%%%%%%%->,,>-&%%%O",
"-%%%:<>=%&-&%%%%%%%%;<>=&&-%%%%O-%%%:,>-&&-&&%%%%%%%;<>=%&-&%%%O-%%%;<>=&&-%%%%%%%%%:<>=&&-&&%%O-%%%;<>=%&-&%%%%%%%%;<>=&&-%%%%O-%%%:,>-&&-&&%%%%%%%;<>=%&-&%%%O-%%%;<>=&&-%%%%%%%%%:<>=&&-&&%%O-%%%;<>=%&-&%%%%%%%%;<>=&&-%%%%O-%%%:,>-&&-&&%%%%%%%;<>=%&-&%%%O-%%%;<>=&&-%%%%%%%%%:<>=&&-&&%%O-%%%;<>=%&-&%%%%%%%%;<>=&&-%%%%O-%%%:,>-&&-&&%%%%%%%;<>=%&-&%%%O-%%%;<>=&&-%%%%%%%%%:<>=&&-&&%%O-%%%;<>=%&-&%%%%%%%%;<>=&&-%%%%O-%%%:,>-&&-&&%%%%%%%;<>=%&-&%%%O-%%%;<>=&&-%%%%%%%%%:<>=&&-&&%%O-%%%;<>=%&-&%%%%%%%%;<>=&&-%%%%O-%%%:,>-&&-&&%%%%%%%;<>=%&-&%%%O",
"-%%-<;&&%%%%+%%%%%%-<;%%&%&%+%%O-%%-,;%%%%%%+%%%%%%-,;&&%%%%+%%O-%%-<;%%&%&%+%%%%%%-<;&%%&%%+%%O-%%-<;&&%%%%+%%%%%%-<;%%&%&%+%%O-%%-,;%%%%%%+%%%%%%-,;&&%%%%+%%O-%%-<;%%&%&%+%%%%%%-<;&%%&%%+%%O-%%-<;&&%%%%+%%%%%%-<;%%&%&%+%%O-%%-,;%%%%%%+%%%%%%-,;&&%%%%+%%O-%%-<;%%&%&%+%%%%%%-<;&%%&%%+%%O-%%-<;&&%%%%+%%%%%%-<;%%&%&%+%%O-%%-,;%%%%%%+%%%%%%-,;&&%%%%+%%O-%%-<;%%&%&%+%%%%%%-<;&%%&%%+%%O-%%-<;&&%%%%+%%%%%%-<;%%&%&%+%%O-%%-,;%%%%%%+%%%%%%-,;&&%%%%+%%O-%%-<;%%&%&%+%%%%%%-<;&%%&%%+%%O-%%-<;&&%%%%+%%%%%%-<;%%&%&%+%%O-%%-,;%%%%%%+%%%%%%-,;&&%%%%+%%O",
"-%&>>%&%%%%%#@%%%%%>>&&%%%%%@@%O-%&>>%%%%%%%#@%%%%&>>%&&%%%%#@%O-%%>>&&%%%%%@@%%%%%>>%%%%%%%#@%O-%%>>%&%%%%%#@%%%%%>>&&%%%%%@@%O-%&>>%%%%%%%#@%%%%&>>%&&%%%%#@%O-%%>>&&%%%%%@@%%%%%>>%%%%%%%#@%O-%%>>%&%%%%%#@%%%%%>>&&%%%%%@@%O-%&>>%%%%%%%#@%%%%&>>%&&%%%%#@%O-%%>>&&%%%%%@@%%%%%>>%%%%%%%#@%O-%%>>%&%%%%%#@%%%%%>>&&%%%%%@@%O-%&>>%%%%%%%#@%%%%&>>%&&%%%%#@%O-%%>>&&%%%%%@@%%%%%>>%%%%%%%#@%O-%%>>%&%%%%%#@%%%%%>>&&%%%%%@@%O-%&>>%%%%%%%#@%%%%&>>%&&%%%%#@%O-%%>>&&%%%%%@@%%%%%>>%%%%%%%#@%O-%%>>%&%%%%%#@%%%%%>>&&%%%%%@@%O-%&>>%%%%%%%#@%%%%&>>%&&%%%%#@%O",
"-%&,=%%%%%%%%X%%%%%,=&%%%%%%%X%O-%&,=%%%%%%%%X%%%%&,=%%%%%%%%X%O-%%,=&%%%%%%%X%%%%%,-%%%%%%%%X%O-%&<=%%%%%%%%X%%%%%,=&%%%%%%%X%O-%&,=%%%%%%%%X%%%%&,=%%%%%%%%X%O-%%,=&%%%%%%%X%%%%%,-%%%%%%%%X%O-%&<=%%%%%%%%X%%%%%,=&%%%%%%%X%O-%&,=%%%%%%%%X%%%%&,=%%%%%%%%X%O-%%,=&%%%%%%%X%%%%%,-%%%%%%%%X%O-%&<=%%%%%%%%X%%%%%,=&%%%%%%%X%O-%&,=%%%%%%%%X%%%%&,=%%%%%%%%X%O-%%,=&%%%%%%%X%%%%%,-%%%%%%%%X%O-%&<=%%%%%%%%X%%%%%,=&%%%%%%%X%O-%&,=%%%%%%%%X%%%%&,=%%%%%%%%X%O-%%,=&%%%%%%%X%%%%%,-%%%%%%%%X%O-%&<=%%%%%%%%X%%%%%,=&%%%%%%%X%O-%&,=%%%%%%%%X%%%%&,=%%%%%%%%X%O",
"-%%,&&%%%%%%% &%%%%,&%%%%%%%% &O-%%,%%%%%%%%% %%%%%,&%%%%%%%% &O-%%,&%%%%%%%% &%%%%>=&%%%%%%%.%O-%%,&%%%%%%%% &%%%%,&%%%%%%%% &O-%%,%%%%%%%%% %%%%%,&%%%%%%%% &O-%%,&%%%%%%%% &%%%%>=&%%%%%%%.%O-%%,&%%%%%%%% &%%%%,&%%%%%%%% &O-%%,%%%%%%%%% %%%%%,&%%%%%%%% &O-%%,&%%%%%%%% &%%%%>=&%%%%%%%.%O-%%,&%%%%%%%% &%%%%,&%%%%%%%% &O-%%,%%%%%%%%% %%%%%,&%%%%%%%% &O-%%,&%%%%%%%% &%%%%>=&%%%%%%%.%O-%%,&%%%%%%%% &%%%%,&%%%%%%%% &O-%%,%%%%%%%%% %%%%%,&%%%%%%%% &O-%%,&%%%%%%%% &%%%%>=&%%%%%%%.%O-%%,&%%%%%%%% &%%%%,&%%%%%%%% &O-%%,%%%%%%%%% %%%%%,&%%%%%%%% &O",
"-%%>&%%%%%%%#.%%%%%>&%%%%%%%# %O-%%>&%%%%%%%# %%%%%>&%%%%%%%#.%O-%%>&%%%%%%%# %%%%%>&&%%%%%%# %O-%%>&%%%%%%%#.%%%%%>&%%%%%%%# %O-%%>&%%%%%%%# %%%%%>&%%%%%%%#.%O-%%>&%%%%%%%# %%%%%>&&%%%%%%# %O-%%>&%%%%%%%#.%%%%%>&%%%%%%%# %O-%%>&%%%%%%%# %%%%%>&%%%%%%%#.%O-%%>&%%%%%%%# %%%%%>&&%%%%%%# %O-%%>&%%%%%%%#.%%%%%>&%%%%%%%# %O-%%>&%%%%%%%# %%%%%>&%%%%%%%#.%O-%%>&%%%%%%%# %%%%%>&&%%%%%%# %O-%%>&%%%%%%%#.%%%%%>&%%%%%%%# %O-%%>&%%%%%%%# %%%%%>&%%%%%%%#.%O-%%>&%%%%%%%# %%%%%>&&%%%%%%# %O-%%>&%%%%%%%#.%%%%%>&%%%%%%%# %O-%%>&%%%%%%%# %%%%%>&%%%%%%%#.%O",
"-%%--%%%%%%%oo%%%%%--%%%%%%%XX%O-%%--%%%%%%%oo%%%%%--%%%%%%%oo%O-%%--%%%%%%%XX%%%%%--&%%%%%%oo%O-%%--%%%%%%%oo%%%%%--%%%%%%%XX%O-%%--%%%%%%%oo%%%%%--%%%%%%%oo%O-%%--%%%%%%%XX%%%%%--&%%%%%%oo%O-%%--%%%%%%%oo%%%%%--%%%%%%%XX%O-%%--%%%%%%%oo%%%%%--%%%%%%%oo%O-%%--%%%%%%%XX%%%%%--&%%%%%%oo%O-%%--%%%%%%%oo%%%%%--%%%%%%%XX%O-%%--%%%%%%%oo%%%%%--%%%%%%%oo%O-%%--%%%%%%%XX%%%%%--&%%%%%%oo%O-%%--%%%%%%%oo%%%%%--%%%%%%%XX%O-%%--%%%%%%%oo%%%%%--%%%%%%%oo%O-%%--%%%%%%%XX%%%%%--&%%%%%%oo%O-%%--%%%%%%%oo%%%%%--%%%%%%%XX%O-%%--%%%%%%%oo%%%%%--%%%%%%%oo%O",
"-%%%&%%%%%%O #%%%%%%=%%%%%%O #%O-%%%=%%%%%&O #%%%%%%&%%%%%&O #%O-%%%=%%%%%%O #%%%%%%&&%%%%%O #%O-%%%&%%%%%&O #%%%%%%=%%%%%%O #%O-%%%=%%%%%&O #%%%%%%&%%%%%&O #%O-%%%=%%%%%%O #%%%%%%&&%%%%%O #%O-%%%&%%%%%&O #%%%%%%=%%%%%%O #%O-%%%=%%%%%&O #%%%%%%&%%%%%&O #%O-%%%=%%%%%%O #%%%%%%&&%%%%%O #%O-%%%&%%%%%&O #%%%%%%=%%%%%%O #%O-%%%=%%%%%&O #%%%%%%&%%%%%&O #%O-%%%=%%%%%%O #%%%%%%&&%%%%%O #%O-%%%&%%%%%&O #%%%%%%=%%%%%%O #%O-%%%=%%%%%&O #%%%%%%&%%%%%&O #%O-%%%=%%%%%%O #%%%%%%&&%%%%%O #%O-%%%&%%%%%&O #%%%%%%=%%%%%%O #%O-%%%=%%%%%&O #%%%%%%&%%%%%&O #%O",
"-%%%%+@%%#o O&%%%%%%%+#%%#o O%%O-%%%%+@%%#o.O%%%%%%%%+#%%#X O&%O-%%%%+#%%#o O%%%%%%%%+#%%#o.O%%O-%%%%+#%%#o O&%%%%%%%+#%%#o O%%O-%%%%+@%%#o.O%%%%%%%%+#%%#X O&%O-%%%%+#%%#o O%%%%%%%%+#%%#o.O%%O-%%%%+#%%#o O&%%%%%%%+#%%#o O%%O-%%%%+@%%#o.O%%%%%%%%+#%%#X O&%O-%%%%+#%%#o O%%%%%%%%+#%%#o.O%%O-%%%%+#%%#o O&%%%%%%%+#%%#o O%%O-%%%%+@%%#o.O%%%%%%%%+#%%#X O&%O-%%%%+#%%#o O%%%%%%%%+#%%#o.O%%O-%%%%+#%%#o O&%%%%%%%+#%%#o O%%O-%%%%+@%%#o.O%%%%%%%%+#%%#X O&%O-%%%%+#%%#o O%%%%%%%%+#%%#o.O%%O-%%%%+#%%#o O&%%%%%%%+#%%#o O%%O-%%%%+@%%#o.O%%%%%%%%+#%%#X O&%O",
"-%%%%%@X. o@%%%%%%%%%%@X..o#&%%O-%%%%%@X  o#%%%%%%%%%%@X  X#%%%O-%%%%%@X..o#&%%%%%%%%%@X .o#%%%O-%%%%%@X. X#%%%%%%%%%%@X..o#&%%O-%%%%%@X  o#%%%%%%%%%%@X  X#%%%O-%%%%%@X..o#&%%%%%%%%%@X .o#%%%O-%%%%%@X. X#%%%%%%%%%%@X..o#&%%O-%%%%%@X  o#%%%%%%%%%%@X  X#%%%O-%%%%%@X..o#&%%%%%%%%%@X .o#%%%O-%%%%%@X. X#%%%%%%%%%%@X..o#&%%O-%%%%%@X  o#%%%%%%%%%%@X  X#%%%O-%%%%%@X..o#&%%%%%%%%%@X .o#%%%O-%%%%%@X. X#%%%%%%%%%%@X..o#&%%O-%%%%%@X  o#%%%%%%%%%%@X  X#%%%O-%%%%%@X..o#&%%%%%%%%%@X .o#%%%O-%%%%%@X. X#%%%%%%%%%%@X..o#&%%O-%%%%%@X  o#%%%%%%%%%%@X  X#%%%O",
"-%%%%%%%&%%%%%%%%%%%%%%%%%%%%%%O-%%%%%%%%%&%%%%%%%%%%%%%&%%%%%%O-%%%%%%%%%%%%%%%%%%%%%%%%%%%%%%O-%%%%%%%%%%%%%%%%%%%%%%%%%%%%%%O-%%%%%%%%%&%%%%%%%%%%%%%&%%%%%%O-%%%%%%%%%%%%%%%%%%%%%%%%%%%%%%O-%%%%%%%%%%%%%%%%%%%%%%%%%%%%%%O-%%%%%%%%%&%%%%%%%%%%%%%&%%%%%%O-%%%%%%%%%%%%%%%%%%%%%%%%%%%%%%O-%%%%%%%%%%%%%%%%%%%%%%%%%%%%%%O-%%%%%%%%%&%%%%%%%%%%%%%&%%%%%%O-%%%%%%%%%%%%%%%%%%%%%%%%%%%%%%O-%%%%%%%%%%%%%%%%%%%%%%%%%%%%%%O-%%%%%%%%%&%%%%%%%%%%%%%&%%%%%%O-%%%%%%%%%%%%%%%%%%%%%%%%%%%%%%O-%%%%%%%%%%%%%%%%%%%%%%%%%%%%%%O-%%%%%%%%%&%%%%%%%%%%%%%&%%%%%%O",
"-%%%%%%%%%%%%%%%%%%%%%%%%%%%%%%O-%%%%%%%%%%%%%%%%%%%%%%%%%%%%%%O-%%%%%%%%%%%%%%%%%%%%%%%%%%%%%%O-%%%%%%%%%%%%%%%%%%%%%%%%%%%%%%O-%%%%%%%%%%%%%%%%%%%%%%%%%%%%%%O-%%%%%%%%%%%%%%%%%%%%%%%%%%%%%%O-%%%%%%%%%%%%%%%%%%%%%%%%%%%%%%O-%%%%%%%%%%%%%%%%%%%%%%%%%%%%%%O-%%%%%%%%%%%%%%%%%%%%%%%%%%%%%%O-%%%%%%%%%%%%%%%%%%%%%%%%%%%%%%O-%%%%%%%%%%%%%%%%%%%%%%%%%%%%%%O-%%%%%%%%%%%%%%%%%%%%%%%%%%%%%%O-%%%%%%%%%%%%%%%%%%%%%%%%%%%%%%O-%%%%%%%%%%%%%%%%%%%%%%%%%%%%%%O-%%%%%%%%%%%%%%%%%%%%%%%%%%%%%%O-%%%%%%%%%%%%%%%%%%%%%%%%%%%%%%O-%%%%%%%%%%%%%%%%%%%%%%%%%%%%%%O",
"-%%%%%%%%%%%%%%%%%%%%%%%%%%%%%%O-%%%%%%%%%%%%%%%%%%%%%%%%%%%%%%O-%%%%%%%%%%%%%%%%%%%%%%%%%%%%%%O-%%%%%%%%%%%%%%%%%%%%%%%%%%%%%%O-%%%%%%%%%%%%%%%%%%%%%%%%%%%%%%O-%%%%%%%%%%%%%%%%%%%%%%%%%%%%%%O-%%%%%%%%%%%%%%%%%%%%%%%%%%%%%%O-%%%%%%%%%%%%%%%%%%%%%%%%%%%%%%O-%%%%%%%%%%%%%%%%%%%%%%%%%%%%%%O-%%%%%%%%%%%%%%%%%%%%%%%%%%%%%%O-%%%%%%%%%%%%%%%%%%%%%%%%%%%%%%O-%%%%%%%%%%%%%%%%%%%%%%%%%%%%%%O-%%%%%%%%%%%%%%%%%%%%%%%%%%%%%%O-%%%%%%%%%%%%%%%%%%%%%%%%%%%%%%O-%%%%%%%%%%%%%%%%%%%%%%%%%%%%%%O-%%%%%%%%%%%%%%%%%%%%%%%%%%%%%%O-%%%%%%%%%%%%%%%%%%%%%%%%%%%%%%O",
"-%%%%%%%%%%%%%%%%%%%%%%%%%%%%%%O-%%%%%%%%%%%%%%%%%%%%%%%%%%%%%%O-%%%%%%%%%%%%%%%%%%%%%%%%%%%%%%O-%%%%%%%%%%%%%%%%%%%%%%%%%%%%%%O-%%%%%%%%%%%%%%%%%%%%%%%%%%%%%%O-%%%%%%%%%%%%%%%%%%%%%%%%%%%%%%O-%%%%%%%%%%%%%%%%%%%%%%%%%%%%%%O-%%%%%%%%%%%%%%%%%%%%%%%%%%%%%%O-%%%%%%%%%%%%%%%%%%%%%%%%%%%%%%O-%%%%%%%%%%%%%%%%%%%%%%%%%%%%%%O-%%%%%%%%%%%%%%%%%%%%%%%%%%%%%%O-%%%%%%%%%%%%%%%%%%%%%%%%%%%%%%O-%%%%%%%%%%%%%%%%%%%%%%%%%%%%%%O-%%%%%%%%%%%%%%%%%%%%%%%%%%%%%%O-%%%%%%%%%%%%%%%%%%%%%%%%%%%%%%O-%%%%%%%%%%%%%%%%%%%%%%%%%%%%%%O-%%%%%%%%%%%%%%%%%%%%%%%%%%%%%%O",
"-%%%%%&&%%%%%%%%%%%%%%&&%%%%%%%O-%%%%%%%&&%%%%%%%%%%%%&&%%%%%%%O-%%%%%%%%%%%%%%%%%%%%%%%%%%%%%%O-%%%%%&&%%%%%%%%%%%%%%&&%%%%%%%O-%%%%%%%&&%%%%%%%%%%%%&&%%%%%%%O-%%%%%%%%%%%%%%%%%%%%%%%%%%%%%%O-%%%%%&&%%%%%%%%%%%%%%&&%%%%%%%O-%%%%%%%&&%%%%%%%%%%%%&&%%%%%%%O-%%%%%%%%%%%%%%%%%%%%%%%%%%%%%%O-%%%%%&&%%%%%%%%%%%%%%&&%%%%%%%O-%%%%%%%&&%%%%%%%%%%%%&&%%%%%%%O-%%%%%%%%%%%%%%%%%%%%%%%%%%%%%%O-%%%%%&&%%%%%%%%%%%%%%&&%%%%%%%O-%%%%%%%&&%%%%%%%%%%%%&&%%%%%%%O-%%%%%%%%%%%%%%%%%%%%%%%%%%%%%%O-%%%%%&&%%%%%%%%%%%%%%&&%%%%%%%O-%%%%%%%&&%%%%%%%%%%%%&&%%%%%%%O",
"-%%%%-><,>-%%%%%%%%%%->,,>-%%%%O-%%%%->,,>=%%%%%%%%%%-><,>-%%%%O-%%%%->,,>-&%%%%%%%%%->,,>-&%%%O-%%%%-><,>-%%%%%%%%%%->,,>-%%%%O-%%%%->,,>=%%%%%%%%%%-><,>-%%%%O-%%%%->,,>-&%%%%%%%%%->,,>-&%%%O-%%%%-><,>-%%%%%%%%%%->,,>-%%%%O-%%%%->,,>=%%%%%%%%%%-><,>-%%%%O-%%%%->,,>-&%%%%%%%%%->,,>-&%%%O-%%%%-><,>-%%%%%%%%%%->,,>-%%%%O-%%%%->,,>=%%%%%%%%%%-><,>-%%%%O-%%%%->,,>-&%%%%%%%%%->,,>-&%%%O-%%%%-><,>-%%%%%%%%%%->,,>-%%%%O-%%%%->,,>=%%%%%%%%%%-><,>-%%%%O-%%%%->,,>-&%%%%%%%%%->,,>-&%%%O-%%%%-><,>-%%%%%%%%%%->,,>-%%%%O-%%%%->,,>=%%%%%%%%%%-><,>-%%%%O",
"-%%%:,>=%&-&%%%%%%%%:,>=&&-&%%%O-%%%:<>=&&-&&%%%%%%%:,>=%&-&%%%O-%%%;<>=%&-&%%%%%%%%:<>=%&-&%%%O-%%%:,>=%&-&%%%%%%%%:,>=&&-&%%%O-%%%:<>=&&-&&%%%%%%%:,>=%&-&%%%O-%%%;<>=%&-&%%%%%%%%:<>=%&-&%%%O-%%%:,>=%&-&%%%%%%%%:,>=&&-&%%%O-%%%:<>=&&-&&%%%%%%%:,>=%&-&%%%O-%%%;<>=%&-&%%%%%%%%:<>=%&-&%%%O-%%%:,>=%&-&%%%%%%%%:,>=&&-&%%%O-%%%:<>=&&-&&%%%%%%%:,>=%&-&%%%O-%%%;<>=%&-&%%%%%%%%:<>=%&-&%%%O-%%%:,>=%&-&%%%%%%%%:,>=&&-&%%%O-%%%:<>=&&-&&%%%%%%%:,>=%&-&%%%O-%%%;<>=%&-&%%%%%%%%:<>=%&-&%%%O-%%%:,>=%&-&%%%%%%%%:,>=&&-&%%%O-%%%:<>=&&-&&%%%%%%%:,>=%&-&%%%O",
"-%%-,;%%%%%&+%%%%%%;<;%%&%%%+%%O-%%-<;&%%&%%+%%%%%%-,;%%%%%&+%%O-%%-,;&&%%%%+%%%%%%-,;&&%%%%+%%O-%%-,;%%%%%&+%%%%%%;<;%%&%%%+%%O-%%-<;&%%&%%+%%%%%%-,;%%%%%&+%%O-%%-,;&&%%%%+%%%%%%-,;&&%%%%+%%O-%%-,;%%%%%&+%%%%%%;<;%%&%%%+%%O-%%-<;&%%&%%+%%%%%%-,;%%%%%&+%%O-%%-,;&&%%%%+%%%%%%-,;&&%%%%+%%O-%%-,;%%%%%&+%%%%%%;<;%%&%%%+%%O-%%-<;&%%&%%+%%%%%%-,;%%%%%&+%%O-%%-,;&&%%%%+%%%%%%-,;&&%%%%+%%O-%%-,;%%%%%&+%%%%%%;<;%%&%%%+%%O-%%-<;&%%&%%+%%%%%%-,;%%%%%&+%%O-%%-,;&&%%%%+%%%%%%-,;&&%%%%+%%O-%%-,;%%%%%&+%%%%%%;<;%%&%%%+%%O-%%-<;&%%&%%+%%%%%%-,;%%%%%&+%%O",
"-%%>>%%%%%%%@@%%%%%>>&&%%%%%#@%O-%%>>%%%%%%%#@%%%%%>>%%%%%%%@@%O-%&>>%&&%%%%#@%%%%&>>%&%%%%%#@%O-%%>>%%%%%%%@@%%%%%>>&&%%%%%#@%O-%%>>%%%%%%%#@%%%%%>>%%%%%%%@@%O-%&>>%&&%%%%#@%%%%&>>%&%%%%%#@%O-%%>>%%%%%%%@@%%%%%>>&&%%%%%#@%O-%%>>%%%%%%%#@%%%%%>>%%%%%%%@@%O-%&>>%&&%%%%#@%%%%&>>%&%%%%%#@%O-%%>>%%%%%%%@@%%%%%>>&&%%%%%#@%O-%%>>%%%%%%%#@%%%%%>>%%%%%%%@@%O-%&>>%&&%%%%#@%%%%&>>%&%%%%%#@%O-%%>>%%%%%%%@@%%%%%>>&&%%%%%#@%O-%%>>%%%%%%%#@%%%%%>>%%%%%%%@@%O-%&>>%&&%%%%#@%%%%&>>%&%%%%%#@%O-%%>>%%%%%%%@@%%%%%>>&&%%%%%#@%O-%%>>%%%%%%%#@%%%%%>>%%%%%%%@@%O",
"-%%,-%%%%%%%%X%%%%%>=&&%%%%%$X%O-%%,-%%%%%%%%X%%%%%,-%%%%%%%%X%O-%&,=%%%%%%%%X%%%%&,=%%%%%%%%X%O-%%,-%%%%%%%%X%%%%%>=&&%%%%%$X%O-%%,-%%%%%%%%X%%%%%,-%%%%%%%%X%O-%&,=%%%%%%%%X%%%%&,=%%%%%%%%X%O-%%,-%%%%%%%%X%%%%%>=&&%%%%%$X%O-%%,-%%%%%%%%X%%%%%,-%%%%%%%%X%O-%&,=%%%%%%%%X%%%%&,=%%%%%%%%X%O-%%,-%%%%%%%%X%%%%%>=&&%%%%%$X%O-%%,-%%%%%%%%X%%%%%,-%%%%%%%%X%O-%&,=%%%%%%%%X%%%%&,=%%%%%%%%X%O-%%,-%%%%%%%%X%%%%%>=&&%%%%%$X%O-%%,-%%%%%%%%X%%%%%,-%%%%%%%%X%O-%&,=%%%%%%%%X%%%%&,=%%%%%%%%X%O-%%,-%%%%%%%%X%%%%%>=&&%%%%%$X%O-%%,-%%%%%%%%X%%%%%,-%%%%%%%%X%O",
"-%%>=&&%%%%%% %%%%%,&%%%%%%%$.&O-%%>=&%%%%%%%.%%%%%>=&&%%%%%% %O-%%,&%%%%%%%% &%%%%,&&%%%%%%% &O-%%>=&&%%%%%% %%%%%,&%%%%%%%$.&O-%%>=&%%%%%%%.%%%%%>=&&%%%%%% %O-%%,&%%%%%%%% &%%%%,&&%%%%%%% &O-%%>=&&%%%%%% %%%%%,&%%%%%%%$.&O-%%>=&%%%%%%%.%%%%%>=&&%%%%%% %O-%%,&%%%%%%%% &%%%%,&&%%%%%%% &O-%%>=&&%%%%%% %%%%%,&%%%%%%%$.&O-%%>=&%%%%%%%.%%%%%>=&&%%%%%% %O-%%,&%%%%%%%% &%%%%,&&%%%%%%% &O-%%>=&&%%%%%% %%%%%,&%%%%%%%$.&O-%%>=&%%%%%%%.%%%%%>=&&%%%%%% %O-%%,&%%%%%%%% &%%%%,&&%%%%%%% &O-%%>=&&%%%%%% %%%%%,&%%%%%%%$.&O-%%>=&%%%%%%%.%%%%%>=&&%%%%%% %O",
"-%%>&&%%%%%%# %%%%%>&%%%%%%%# %O-%%>&&%%%%%%# %%%%%>&&%%%%%%# %O-%%>&%%%%%%%#.%%%%%>&%%%%%%%#.%O-%%>&&%%%%%%# %%%%%>&%%%%%%%# %O-%%>&&%%%%%%# %%%%%>&&%%%%%%# %O-%%>&%%%%%%%#.%%%%%>&%%%%%%%#.%O-%%>&&%%%%%%# %%%%%>&%%%%%%%# %O-%%>&&%%%%%%# %%%%%>&&%%%%%%# %O-%%>&%%%%%%%#.%%%%%>&%%%%%%%#.%O-%%>&&%%%%%%# %%%%%>&%%%%%%%# %O-%%>&&%%%%%%# %%%%%>&&%%%%%%# %O-%%>&%%%%%%%#.%%%%%>&%%%%%%%#.%O-%%>&&%%%%%%# %%%%%>&%%%%%%%# %O-%%>&&%%%%%%# %%%%%>&&%%%%%%# %O-%%>&%%%%%%%#.%%%%%>&%%%%%%%#.%O-%%>&&%%%%%%# %%%%%>&%%%%%%%# %O-%%>&&%%%%%%# %%%%%>&&%%%%%%# %O",
"-%%-=%%%%%%&oo&%%%%--%%%%%%&XX%O-%%--&%%%%%%oo%%%%%-=%%%%%%&Xo&O-%%--%%%%%%%oo%%%%%--%%%%%%%oo%O-%%-=%%%%%%&oo&%%%%--%%%%%%&XX%O-%%--&%%%%%%oo%%%%%-=%%%%%%&Xo&O-%%--%%%%%%%oo%%%%%--%%%%%%%oo%O-%%-=%%%%%%&oo&%%%%--%%%%%%&XX%O-%%--&%%%%%%oo%%%%%-=%%%%%%&Xo&O-%%--%%%%%%%oo%%%%%--%%%%%%%oo%O-%%-=%%%%%%&oo&%%%%--%%%%%%&XX%O-%%--&%%%%%%oo%%%%%-=%%%%%%&Xo&O-%%--%%%%%%%oo%%%%%--%%%%%%%oo%O-%%-=%%%%%%&oo&%%%%--%%%%%%&XX%O-%%--&%%%%%%oo%%%%%-=%%%%%%&Xo&O-%%--%%%%%%%oo%%%%%--%%%%%%%oo%O-%%-=%%%%%%&oo&%%%%--%%%%%%&XX%O-%%--&%%%%%%oo%%%%%-=%%%%%%&Xo&O",
"-%%%=%%%%%%O.#%%%%%%=%%%%%%O #%O-%%%&&%%%%%O #%%%%%%=%%%%%%O.#%O-%%%&%%%%%&O #%%%%%%&%%%%%%O #%O-%%%=%%%%%%O.#%%%%%%=%%%%%%O #%O-%%%&&%%%%%O #%%%%%%=%%%%%%O.#%O-%%%&%%%%%&O #%%%%%%&%%%%%%O #%O-%%%=%%%%%%O.#%%%%%%=%%%%%%O #%O-%%%&&%%%%%O #%%%%%%=%%%%%%O.#%O-%%%&%%%%%&O #%%%%%%&%%%%%%O #%O-%%%=%%%%%%O.#%%%%%%=%%%%%%O #%O-%%%&&%%%%%O #%%%%%%=%%%%%%O.#%O-%%%&%%%%%&O #%%%%%%&%%%%%%O #%O-%%%=%%%%%%O.#%%%%%%=%%%%%%O #%O-%%%&&%%%%%O #%%%%%%=%%%%%%O.#%O-%%%&%%%%%&O #%%%%%%&%%%%%%O #%O-%%%=%%%%%%O.#%%%%%%=%%%%%%O #%O-%%%&&%%%%%O #%%%%%%=%%%%%%O.#%O",
"-%%%&+#%%#X O%%%%%%%%+#%%#o O%%O-%%%%+#%%#o.O%%%%%%%&+#%%#o O%%O-%%%%+#%%#X O&%%%%%%%+@%%#o O&%O-%%%&+#%%#X O%%%%%%%%+#%%#o O%%O-%%%%+#%%#o.O%%%%%%%&+#%%#o O%%O-%%%%+#%%#X O&%%%%%%%+@%%#o O&%O-%%%&+#%%#X O%%%%%%%%+#%%#o O%%O-%%%%+#%%#o.O%%%%%%%&+#%%#o O%%O-%%%%+#%%#X O&%%%%%%%+@%%#o O&%O-%%%&+#%%#X O%%%%%%%%+#%%#o O%%O-%%%%+#%%#o.O%%%%%%%&+#%%#o O%%O-%%%%+#%%#X O&%%%%%%%+@%%#o O&%O-%%%&+#%%#X O%%%%%%%%+#%%#o O%%O-%%%%+#%%#o.O%%%%%%%&+#%%#o O%%O-%%%%+#%%#X O&%%%%%%%+@%%#o O&%O-%%%&+#%%#X O%%%%%%%%+#%%#o O%%O-%%%%+#%%#o.O%%%%%%%&+#%%#o O%%O",
"-%%%&&@X  o#%%%%%%%%%%@X..o#&%%O-%%%%%@X .o#%%%%%%%%&&@X. o#%%%O-%%%%%@X  X#%%%%%%%%%%@X. o@%%%O-%%%&&@X  o#%%%%%%%%%%@X..o#&%%O-%%%%%@X .o#%%%%%%%%&&@X. o#%%%O-%%%%%@X  X#%%%%%%%%%%@X. o@%%%O-%%%&&@X  o#%%%%%%%%%%@X..o#&%%O-%%%%%@X .o#%%%%%%%%&&@X. o#%%%O-%%%%%@X  X#%%%%%%%%%%@X. o@%%%O-%%%&&@X  o#%%%%%%%%%%@X..o#&%%O-%%%%%@X .o#%%%%%%%%&&@X. o#%%%O-%%%%%@X  X#%%%%%%%%%%@X. o@%%%O-%%%&&@X  o#%%%%%%%%%%@X..o#&%%O-%%%%%@X .o#%%%%%%%%&&@X. o#%%%O-%%%%%@X  X#%%%%%%%%%%@X. o@%%%O-%%%&&@X  o#%%%%%%%%%%@X..o#&%%O-%%%%%@X .o#%%%%%%%%&&@X. o#%%%O",
"-%%%%%%%%%%%%%%%%%%%%%%%%%%%%%%O-%%%%%%%%%%%%%%%%%%%%%%%%%%%%%%O-%%%%%%%&%%%%%%%%%%%%%%%&%%%%%%O-%%%%%%%%%%%%%%%%%%%%%%%%%%%%%%O-%%%%%%%%%%%%%%%%%%%%%%%%%%%%%%O-%%%%%%%&%%%%%%%%%%%%%%%&%%%%%%O-%%%%%%%%%%%%%%%%%%%%%%%%%%%%%%O-%%%%%%%%%%%%%%%%%%%%%%%%%%%%%%O-%%%%%%%&%%%%%%%%%%%%%%%&%%%%%%O-%%%%%%%%%%%%%%%%%%%%%%%%%%%%%%O-%%%%%%%%%%%%%%%%%%%%%%%%%%%%%%O-%%%%%%%&%%%%%%%%%%%%%%%&%%%%%%O-%%%%%%%%%%%%%%%%%%%%%%%%%%%%%%O-%%%%%%%%%%%%%%%%%%%%%%%%%%%%%%O-%%%%%%%&%%%%%%%%%%%%%%%&%%%%%%O-%%%%%%%%%%%%%%%%%%%%%%%%%%%%%%O-%%%%%%%%%%%%%%%%%%%%%%%%%%%%%%O",
"-OOOOOOOOOOOOOOOOOOOOOOOOOOOOOOO-OOOOOOOOOOOOOOOOOOOOOOOOOOOOOOO-OOOOOOOOOOOOOOOOOOOOOOOOOOOOOOO-OOOOOOOOOOOOOOOOOOOOOOOOOOOOOOO-OOOOOOOOOOOOOOOOOOOOOOOOOOOOOOO-OOOOOOOOOOOOOOOOOOOOOOOOOOOOOOO-OOOOOOOOOOOOOOOOOOOOOOOOOOOOOOO-OOOOOOOOOOOOOOOOOOOOOOOOOOOOOOO-OOOOOOOOOOOOOOOOOOOOOOOOOOOOOOO-OOOOOOOOOOOOOOOOOOOOOOOOOOOOOOO-OOOOOOOOOOOOOOOOOOOOOOOOOOOOOOO-OOOOOOOOOOOOOOOOOOOOOOOOOOOOOOO-OOOOOOOOOOOOOOOOOOOOOOOOOOOOOOO-OOOOOOOOOOOOOOOOOOOOOOOOOOOOOOO-OOOOOOOOOOOOOOOOOOOOOOOOOOOOOOO-OOOOOOOOOOOOOOOOOOOOOOOOOOOOOOO-OOOOOOOOOOOOOOOOOOOOOOOOOOOOOOO"
};
