/* XPM */
static char *_3eeb9335c604612c95263aa05b92609GollSYTF09q7KufZ[] = {
/* columns rows colors chars-per-pixel */
"32 32 29 1 ",
"  c gray10",
". c #1B1B1B",
"X c #323232",
"o c gray21",
"O c gray22",
"+ c #3F3F3F",
"@ c gray53",
"# c gray54",
"$ c #8E8E8E",
"% c #939393",
"& c #959595",
"* c gray60",
"= c gray61",
"- c gray64",
"; c gray65",
": c #AAAAAA",
"> c #AEAEAE",
", c gray70",
"< c #B4B4B4",
"1 c gray73",
"2 c gray",
"3 c #C0C0C0",
"4 c #C6C6C6",
"5 c gray79",
"6 c gray81",
"7 c #D2D2D2",
"8 c #D5D5D5",
"9 c #D8D8D8",
"0 c gray86",
/* pixels */
"                                ",
"       +$X            o$O       ",
"      +<,%X          o,<*O      ",
"     +<<,>%X        o>,<<*O     ",
"    +<<,,,,%X      o>,<<<,*o    ",
"   +<<24,-&:%X    o,,25<;&:*O   ",
"  +<,29<,,,@:&X  o,,19<<,,@:*O  ",
" +<,,83,,,,=&,%Xo>,,63<<,,-%,*O ",
" :<<,91<<,,;$,,%><,,82,,,,:#,>@ ",
" o,<,73<,,,=*,,,,,,,74,,,,-&>%X ",
"  o>,19<,,>#><,,,,,,<9<,,>#:%X  ",
"   o,<14,-*>,,,,,,,<<14,-&:%X   ",
"    o><<,,,,,,<2:;,,,,,,,,%X    ",
"     o>,,,,,,28<<>$:,,,,>%X     ",
"      o,,,,,<91,,,>@,,,,%X      ",
"       o>,,,28,,,,,#:,,&X       ",
"       o>,,,39<<,,,#:,,&X       ",
"      o>,,,,<9<<,,>@,,,,%X      ",
"     o,,,,,,<37<,>$:,,,,,%X     ",
"    o,<<,,,,<<<2:;,,,,,,,>%X    ",
"   o,,14,-*><,,,,,,,,15,-*:%X   ",
"  o><19<,,>#>,,,,,,,19<,,>@:%X  ",
" o,,<73,,,,*&,,,,,,,64,,,,-%,%X ",
" ;<,<91,,<<;$,,&>,,,92,,,,:#,>@ ",
" +<<<73<,,,=&,%Xo><,74<<,,-%,*O ",
"  +<<29<,,>#:%X  o,<19<,,,#:&O  ",
"   +<<25,-&:%X    o>,15,-&:*O   ",
"    +<,,,,,%X      o,<,,,,*o    ",
"     +<<,>%X        o,,,,*O     ",
"      +<,%X          o>,*O      ",
"       +-X            o;o       ",
"                                "
};
