/* XPM */
static char *_6a3bb1685a94dfe8b9d8371d20ba8fciTEqhtVYSaC1XhMW[] = {
/* columns rows colors chars-per-pixel */
"32 32 21 1 ",
"  c #7E7E7E",
". c #808080",
"X c #8B8B8B",
"o c gray55",
"O c #8E8E8E",
"+ c #989898",
"@ c gray60",
"# c #9F9F9F",
"$ c gray64",
"% c #A4A4A4",
"& c gray69",
"* c gray70",
"= c gray71",
"- c gray72",
"; c #B9B9B9",
": c #C1C1C1",
"> c gray79",
", c #CDCDCD",
"< c #D7D7D7",
"1 c #E2E2E2",
"2 c #E4E4E4",
/* pixels */
":::::::::::::::::::::::::::::::@",
":******************************+",
":****=****************==*******+",
":****:<11<:=*********:<21<:****+",
":**=,2<;*=:=********,1<;==:=***+",
":**:1>==**=*#******:2>**=***#**+",
":**<<*=*****%$*****<<==*****$$*+",
":*=2;********X*****1;=*******X*+",
":**1==*******.=****1=********.=@",
":**<=*******%.*****<=*******% *+",
":**::*******oo*****::*******oX*+",
":***=******@ $******;******@ $*+",
":****#%**%o @=*******#%**%X @**@",
":*****$X..o%**********%X..o$=**+",
":***********************=******+",
":******************************+",
":******************************+",
":******************************+",
":*********************==*******+",
":****:<11<:*********=:<11<:****+",
":***,2<:==:=********,1<;==:=***+",
":*=:1>=***==#******:1>**=***#**+",
":**<<=******$$*****<<==*****$$*+",
":**1;********X*****1;==******X*+",
":**1********* *****1=********.=@",
":**<==******$ *****<=*******% *+",
":**:;******=oo=****::*******oX*+",
":***;******@.%=*****;******@ $*+",
":***=#$*=$o.+********#$**%X @**@",
":***==$X  o%**********$X..o$=**+",
":***********************=******+",
":++++++@++++++++++++++++@@++++++"
};
