/* XPM */
static char *_d450b3460c34b07b970960f4c35f2a37h9yPTpBtGRToQvp[] = {
/* columns rows colors chars-per-pixel */
"32 32 24 1 ",
"  c #007700",
". c #007A00",
"X c #008400",
"o c #008600",
"O c #009000",
"+ c #009700",
"@ c #009B00",
"# c #009D00",
"$ c #00A700",
"% c #00AA00",
"& c #08AD08",
"* c #0FAF0F",
"= c #2CB22C",
"- c #2CB92C",
"; c #30B930",
": c #32BA32",
"> c #36BB36",
", c #51C351",
"< c #5DC85D",
"1 c #79D079",
"2 c #83D383",
"3 c #A4DEA4",
"4 c #A7DFA7",
"5 c #AFE2AF",
/* pixels */
":::::::::::::::::::::::::::::::O",
":%%%%%%%%%%%%%%%%%%%%%%%%%%%%%%O",
":%%%%%%%%%%%%%%%%%%%%%%%%%%%%%%O",
":%%%%>2442>%%%%%%%%%%>2442:%%%%O",
":%%%<51-&*-=%%%%%%%%<51-&*:=%%%O",
":%%>5,%%%%%%+%%%%%%>5,%%%%%%+%%O",
":%%21%%%%%%%#@%%%%%21%%%%%%%##%O",
":%%4-%%%%%%%$X%%%%%4-%%%%%%%%X%O",
":%%4&%%%%%%%%.%%%%%4&%%%%%%%$.%O",
":%%1*%%%%%%%#.%%%%%2*%%%%%%%#.%O",
":%%>:%%%%%%%XX%%%%%::%%%%%%%XX%O",
":%%%=%%%%%%O @%%%%%%=%%%%%%O.#%O",
":%%%%+#%$#X.O%%%%%%%%@#%%#X.O%%O",
":%%%%%@X..X@%%%%%%%%%%@X..X#%%%O",
":%%%%%%%%%%%%%%%%%%%%%%%%%%%%%%O",
":%%%%%%%%%%%%%%%%%%%%%%%%%%%%%%O",
":%%%%%%%%%%%%%%%%%%%%%%%%%%%%%%O",
":%%%%%%%%%%%%%%%%%%%%%%%%%%%%%%O",
":%%%%%%%%%%%%%%%%%%%%%%%%$%%%%%O",
":%%%%>2442:%%%%%%%%%%>2442:%%%%O",
":%%%<51-&*-=%%%%%%%%<51-&*:=%%%O",
":%%>5,%%%%%%+%%%%%%>5,%%%%%%@%%O",
":%%21%%%%%%%#@%%%%%21%%%%%%%#@%O",
":%%4-%%%%%%%$X%%%%%4-%%%%%%%$X%O",
":%%4&%%%%%%%$.%%%%%4&%%%%%%%%.%O",
":%%2*%%%%%%%#.%%%%%2*%%%%%%%#.%O",
":%%::%%%%%%%XX%%%%%::%%%%%%%XX%O",
":%%%=%%%%%%O.@%%%%%%=%%%%%%O.#%O",
":%%%%+@$%#X.O%%%%%%%%+#%%#X O%%O",
":%%%%%@X..X#%%%%%%%%%%@X..X#%%%O",
":%%%%%%%%%%%%%%%%%%%%%%%%%%%%%%O",
":O+OOOOOOOO+OOOOOOOOO+OOOOOOO+OO"
};
