/* XPM */
static char *_5d8725a08904d5289e8eb440a19f1b9rdfaRYMndUhvamqu[] = {
/* columns rows colors chars-per-pixel */
"32 32 26 1 ",
"  c #B30000",
". c #B70000",
"X c #C60000",
"o c #C90000",
"O c #D80000",
"+ c #D90000",
"@ c #E30000",
"# c #E80000",
"$ c #EB0000",
"% c #EC0000",
"& c #FB0000",
"* c red",
"= c #FF0808",
"- c #FF0F0F",
"; c #F42C2C",
": c #F52C2C",
"> c #FF2C2C",
", c #FD3030",
"< c #FF3333",
"1 c #FE3636",
"2 c #FC5151",
"3 c #FD5D5D",
"4 c #FC7979",
"5 c #FB8383",
"6 c #FBA7A7",
"7 c #FBAFAF",
/* pixels */
"<<<<<<<<<<<<<<<<<<<<<<<<<<<<<<<+",
"<******************************O",
"<******************************+",
"<****156651**********15665<****+",
"<***374>=->;********374>=-<;***+",
"<**172******@******172******@**+",
"<**54*******%#*****54*******##*+",
"<**6>*******&o*****6>********X*+",
"<**6=******** *****6=*******&.*+",
"<**4-*******%.*****4-*******#.*+",
"<**1<*******XX*****<<*******oo*+",
"<***;******+ #******;******+ #*+",
"<****@#*&#o +********@%&*%X +**+",
"<*****#X..o#**********#o .X#***+",
"<******************************+",
"<******************************+",
"1******************************O",
"<******************************O",
"<******************************+",
"<****156651**********15665<****+",
"<***374>=->;********374>=-<;***+",
"<**172******#******172******@**+",
"<**54*******##*****54*******##*+",
"<**6>*******&X*****6>********X*+",
"<**6=*******& *****6=*******&.*+",
"<**4-*******%.*****4-*******#.*+",
"<**<,*******oX*****<<*******oo*+",
"<***;******+ %******;******O #*+",
"1****@#&*#o O********@%&*%X +**+",
"<*****#X. X%**********#o .X#***+",
"<******************************+",
"<++++++++++++++++++O++++++++++++"
};
