/* XPM */
static char *_7e5bfe1d6e5495ade28c1da8bc10dceHxkfig8Y5FEJuU7U[] = {
/* columns rows colors chars-per-pixel */
"32 352 20 1 ",
"  c #7E7E7E",
". c #808080",
"X c #8B8B8B",
"o c gray55",
"O c #8E8E8E",
"+ c #989898",
"@ c #9F9F9F",
"# c gray64",
"$ c #A4A4A4",
"% c gray69",
"& c gray70",
"* c gray71",
"= c gray72",
"- c #B9B9B9",
"; c gray76",
": c gray79",
"> c #CDCDCD",
", c #D7D7D7",
"< c #E1E1E1",
"1 c #E4E4E4",
/* pixels */
";;;;;;;;;;;;;;;;;;;;;;;;;;;;;;;+",
";&&&&&&&&&&&&&&&&&&&&&&&&&&&&&&+",
";&&&&&&*&&&&&&&&&&&&&&&&&&&&&&&+",
";&&&&;,1<,;&&&&&&&&&&;,<<,;&&&&+",
";&&&>1,-**;*&&&&&&&&><,-**;**&&+",
";&&;1:&&*&&&@&&&&&&;1:*&&&&&@&&+",
";&&,,**&&&&&$#&&&&&,,*&&&&&&$#&+",
";&&<-*&&&&&&&X&&&&&<;&&&&&&&&X&+",
";&&<*&&&&&&&&.*&&&&<*&&&&&&&* &+",
";&&,*&&&&&&&$ &&&&&,*&&&&&&&# &+",
";&&;;&&&&&&&oo&&&&&;;&&&&&*&oo&+",
";&&&-&&&&&&+ #&&&&&&-&&&&&*+ $&+",
";&&&&@$&&$o +&&&&&&&&@#&&$o.+&&+",
";&&&&&$X..o$*&&&&&&&&&#X  o$&&&+",
";&&&&&&&*&&&&&&&&&&&&&&&&&**&&&+",
";&&&&&&&&&&&&&&&&&&&&&&&&&&&&&&+",
";&&&&&&&&&&&&&&&&&&&&&&&&&&&&&&+",
";&&&&&&&&&&&&&&&&&&&&&&&&&&&&&&+",
";&&&&&&&&&&&&&&&&&&&&&&&&&&&&&&+",
";&&&&;,<<,;&&&&&&&&&&;,<<,;&&&&+",
";&&&><,;&*;-&&&&&&&&>1,-&*;-&&&+",
";&&;<:&*&&&&@&&&&&&;<:**&&&&@&&+",
";&*,,&&&&&&&$#&&&&*,,&**&&&&$#&+",
";&*<-&&&&&&&&X&&&&*<-&&&&&&&&X&+",
";&&<**&&&&&&&.*&&&&<***&&&&&&.*+",
";&&,*&&&&&&&$.&&&&&,**&&&&&&$.&+",
";&&;;&&&&&&&oo&&&&&;-*&&&&&&oo&+",
";&&&*&&&&&&+ $&&&&&&-&&&&&&+ $&+",
";&&&&@$&&$o +*&&&&&&&@$&&$o +*&+",
";&&&&&#X..o$&&&&&&&&&&#X..o$&&&+",
";&&&&&&&&&&&&&&&&&&&&&&&&&&&&&&+",
";+++++++++++++++++++++++++++++++",
";;;;;;;;;;;;;;;;;;;;;;;;;;;;;;;+",
";&&&&&&&&&&&&&&&&&&&&&&&&&&&&&&+",
";&&&&&&&&&&&&&&&&&&&&&&&&&&&&&&+",
";&&&&;,<<,;&&&&&&&&&&;,<<,;&&&&+",
";&&&><,;**;*&&&&&&&&><,;**;*&&&+",
";&&;<:&&&&&*@&&&&&&;<:&&&&&*@&&+",
";&&,,&&&&&&&##&&&&&,,&&&&&&&##&+",
";&&<;&&&&&&&&X&&&&&<;&&&&&&&&X&+",
";&&<*&&&&&&&& &&&&&<*&&&&&&&& &+",
";&&,*&&&&&&&# &&&&&,*&&&&&&&# &+",
";&&;;&&&&&**oo*&&&&;;&&&&&**oo*+",
";&&&*&&&&&&+.$*&&&&&*&&&&&&+.$*+",
";&&&*@$&&$o +&&&&&&&*@$&&$o +&&+",
";&&&&&#X. o$&&&&&&&&&&#X. o$&&&+",
";&&&&&&&&&&&&&&&&&&&&&&&&&&&&&&+",
";&&&&&&&&&&&&&&&&&&&&&&&&&&&&&&+",
";&&&&&&&&&&&&&&&&&&&&&&&&&&&&&&+",
";&&&&&&&&&&&&&&&&&&&&&&&&&&&&&&+",
";&&&&&**&&&&&&&&&&&&&&&&&&&&&&&+",
";&&&&;,1<,;&&&&&&&&&&;,<<,;&&&&+",
";&&&><,-**;&&&&&&&&&><,-**;**&&+",
";&&;1:&&*&*&@&&&&&&;1:*&&&&&@&&+",
";&&,,**&&&&&$#&&&&&,,*&&&&&&$#&+",
";&&<-*&&&&&&&X&&&&&<;&&&&&&&&X&+",
";&&<*&&&&&&&&.*&&&&<*&&&&&&&&.&+",
";&&,*&&&&&&&# &&&&&,*&&&&&&&$ &+",
";&&;;&&&&&&&oo&&&&&;;&&&&&&&oo&+",
";&&&-&&&&&&+ #&&&&&&-&&&&&*+ $&+",
";&&&&@$&&$o +&&&&&&&&@$&&$o.+&&+",
";&&&&&$X..o$*&&&&&&&&&#X .o$&&&+",
";&&&&&&&*&&&&&&&&&&&&&&&&&*&&&&+",
";+++++++++++++++++++++++++++++++",
";;;;;;;;;;;;;;;;;;;;;;;;;;;;;;;+",
";&&&&&&&&&&&&&&&&&&&&&&&&&&&&&&+",
";&&&&&&&&&&&&&&&&&&&&&&*&&&&&&&+",
";&&&&;,<<,;&&&&&&&&&&;,1<,;&&&&+",
";&&&><,;&*;-&&&&&&&&><,-**;&&&&+",
";&&;<:&*&&&&@&&&&&&;<:&&*&*&@&&+",
";&*,,&&&&&&&$#&&&&&,,&&&&&&&$#&+",
";&*<-&&&&&&&&X&&&&&<;*&&&&&&&X&+",
";&&<**&&&&&&&.*&&&&<*&&&&&&&&.*+",
";&&,*&&&&&&&$.&&&&&,*&&&&&&&# &+",
";&&;;&&&&&&&oo&&&&&;;&&&&&&&oo&+",
";&&&*&&&&&&+ $&&&&&&-&&&&&&+ #&+",
";&&&&@$&&$o +*&&&&&&&@$&&$o +&&+",
";&&&&&#X..o$&&&&&&&&&&$X..o$*&&+",
";&&&&&&&&&&&&&&&&&&&&&&&*&&&&&&+",
";&&&&&&&&&&&&&&&&&&&&&&&&&&&&&&+",
";&&&&&&&&&&&&&&&&&&&&&&&&&&&&&&+",
";&&&&&&&&&&&&&&&&&&&&&&&&&&&&&&+",
";&&&&&&&&&&&&&&&&&&&&&**&&&&&&&+",
";&&&&;,<<,;&&&&&&&&&&;,1<,;&&&&+",
";&&&><,;**;*&&&&&&&&><,-**;&&&&+",
";&&;<:&&&&&*@&&&&&&;<:&&*&*&@&&+",
";&&,,&&&&&&&##&&&&&,,**&&&&&$#&+",
";&&<;&&&&&&&&X&&&&&<-**&&&&&&X&+",
";&&<*&&&&&&&& &&&&&<*&&&&&&&&.*+",
";&&,*&&&&&&&# &&&&&,*&&&&&&&# &+",
";&&;;&&&&&**oo*&&&&;;&&&&&&&oo&+",
";&&&*&&&&&&+.$*&&&&&-&&&&&&+ #&+",
";&&&*@$&*#o +&&&&&&&&@$&&$o +&&+",
";&&&&&#X  o$&&&&&&&&&&$X..o$*&&+",
";&&&&&&&&&&&&&&&&&&&&&&&*&&&&&&+",
";+++++++++++++++++++++++++++++++",
";;;;;;;;;;;;;;;;;;;;;;;;;;;;;;;+",
";&&&&&&&&&&&&&&&&&&&&&&&&&&&&&&+",
";&&&&&**&&&&&&&&&&&&&&&&&&&&&&&+",
";&&&&;,1<,;&&&&&&&&&&;,<<,;&&&&+",
";&&&><,-**;&&&&&&&&&><,-**;**&&+",
";&&;1:&&*&*&@&&&&&&;1:*&&&&&@&&+",
";&&,,**&&&&&$#&&&&&,,*&&&&&&$#&+",
";&&<-*&&&&&&&X&&&&&<;&&&&&&&&X&+",
";&&<*&&&&&&&&.*&&&&<*&&&&&&&* &+",
";&&,*&&&&&&&# &&&&&,*&&&&&&&# &+",
";&&;;&&&&&&&oo&&&&&;;&&&&&*&oo&+",
";&&&-&&&&&&+ #&&&&&&-&&&&&*+ $&+",
";&&&&@$&&$o +&&&&&&&&@#&&$o.+&&+",
";&&&&&$X..o$*&&&&&&&&&#X  o$&&&+",
";&&&&&&&*&&&&&&&&&&&&&&&&&**&&&+",
";&&&&&&&&&&&&&&&&&&&&&&&&&&&&&&+",
";&&&&&&&&&&&&&&&&&&&&&&&&&&&&&&+",
";&&&&&&&&&&&&&&&&&&&&&&&&&&&&&&+",
";&&&&&&&&&&&&&&&&&&&&&&&&&&&&&&+",
";&&&&;,<<,;&&&&&&&&&&;,<<,;&&&&+",
";&&&><,;&*;-&&&&&&&&>1,-&*;-&&&+",
";&&;<:&*&&&&@&&&&&&;<:**&&&&@&&+",
";&*,,&&&&&&&$#&&&&*,,&**&&&&$#&+",
";&*<-&&&&&&&&X&&&&*<-&&&&&&&&X&+",
";&&<**&&&&&&&.*&&&&<***&&&&&&.*+",
";&&,*&&&&&&&$.&&&&&,**&&&&&&$.&+",
";&&;;&&&&&&&oo&&&&&;-*&&&&&&oo&+",
";&&&*&&&&&&+ $&&&&&&-&&&&&&+ $&+",
";&&&&@$&&$o +*&&&&&&&@$&&$o +*&+",
";&&&&&#X..o$&&&&&&&&&&#X..o$&&&+",
";&&&&&&&&&&&&&&&&&&&&&&&&&&&&&&+",
";+++++++++++++++++++++++++++++++",
";;;;;;;;;;;;;;;;;;;;;;;;;;;;;;;+",
";&&&&&&&&&&&&&&&&&&&&&&&&&&&&&&+",
";&&&&&&&&&&&&&&&&&&&&&&&&&&&&&&+",
";&&&&;,<<,;&&&&&&&&&&;,<<,;&&&&+",
";&&&><,;**;*&&&&&&&&><,;**;*&&&+",
";&&;<:&&&&&*@&&&&&&;<:&&&&&*@&&+",
";&&,,&&&&&&&##&&&&&,,&&&&&&&##&+",
";&&<;&&&&&&&&X&&&&&<;&&&&&&&&X&+",
";&&<*&&&&&&&& &&&&&<*&&&&&&&& &+",
";&&,*&&&&&&&# &&&&&,*&&&&&&&# &+",
";&&;;&&&&&**oo*&&&&;;&&&&&**oo*+",
";&&&*&&&&&&+.$*&&&&&*&&&&&&+.$*+",
";&&&*@$&&$o +&&&&&&&*@$&&$o +&&+",
";&&&&&#X. o$&&&&&&&&&&#X. o$&&&+",
";&&&&&&&&&&&&&&&&&&&&&&&&&&&&&&+",
";&&&&&&&&&&&&&&&&&&&&&&&&&&&&&&+",
";&&&&&&&&&&&&&&&&&&&&&&&&&&&&&&+",
";&&&&&&&&&&&&&&&&&&&&&&&&&&&&&&+",
";&&&&&**&&&&&&&&&&&&&&&&&&&&&&&+",
";&&&&;,1<,;&&&&&&&&&&;,<<,;&&&&+",
";&&&><,-**;&&&&&&&&&><,-**;**&&+",
";&&;1:&&*&*&@&&&&&&;1:*&&&&&@&&+",
";&&,,**&&&&&$#&&&&&,,*&&&&&&$#&+",
";&&<-*&&&&&&&X&&&&&<;&&&&&&&&X&+",
";&&<*&&&&&&&&.*&&&&<*&&&&&&&&.&+",
";&&,*&&&&&&&# &&&&&,*&&&&&&&$ &+",
";&&;;&&&&&&&oo&&&&&;;&&&&&&&oo&+",
";&&&-&&&&&&+ #&&&&&&-&&&&&*+ $&+",
";&&&&@$&&$o +&&&&&&&&@$&&$o.+&&+",
";&&&&&$X..o$*&&&&&&&&&#X .o$&&&+",
";&&&&&&&*&&&&&&&&&&&&&&&&&*&&&&+",
";+++++++++++++++++++++++++++++++",
";;;;;;;;;;;;;;;;;;;;;;;;;;;;;;;+",
";&&&&&&&&&&&&&&&&&&&&&&&&&&&&&&+",
";&&&&&&&&&&&&&&&&&&&&&&*&&&&&&&+",
";&&&&;,<<,;&&&&&&&&&&;,1<,;&&&&+",
";&&&><,;&*;-&&&&&&&&><,-**;&&&&+",
";&&;<:&*&&&&@&&&&&&;<:&&*&*&@&&+",
";&*,,&&&&&&&$#&&&&&,,&&&&&&&$#&+",
";&*<-&&&&&&&&X&&&&&<;*&&&&&&&X&+",
";&&<**&&&&&&&.*&&&&<*&&&&&&&&.*+",
";&&,*&&&&&&&$.&&&&&,*&&&&&&&# &+",
";&&;;&&&&&&&oo&&&&&;;&&&&&&&oo&+",
";&&&*&&&&&&+ $&&&&&&-&&&&&&+ #&+",
";&&&&@$&&$o +*&&&&&&&@$&&$o +&&+",
";&&&&&#X..o$&&&&&&&&&&$X..o$*&&+",
";&&&&&&&&&&&&&&&&&&&&&&&*&&&&&&+",
";&&&&&&&&&&&&&&&&&&&&&&&&&&&&&&+",
";&&&&&&&&&&&&&&&&&&&&&&&&&&&&&&+",
";&&&&&&&&&&&&&&&&&&&&&&&&&&&&&&+",
";&&&&&&&&&&&&&&&&&&&&&**&&&&&&&+",
";&&&&;,<<,;&&&&&&&&&&;,1<,;&&&&+",
";&&&><,;**;*&&&&&&&&><,-**;&&&&+",
";&&;<:&&&&&*@&&&&&&;<:&&*&*&@&&+",
";&&,,&&&&&&&##&&&&&,,**&&&&&$#&+",
";&&<;&&&&&&&&X&&&&&<-**&&&&&&X&+",
";&&<*&&&&&&&& &&&&&<*&&&&&&&&.*+",
";&&,*&&&&&&&# &&&&&,*&&&&&&&# &+",
";&&;;&&&&&**oo*&&&&;;&&&&&&&oo&+",
";&&&*&&&&&&+.$*&&&&&-&&&&&&+ #&+",
";&&&*@$&*#o +&&&&&&&&@$&&$o +&&+",
";&&&&&#X  o$&&&&&&&&&&$X..o$*&&+",
";&&&&&&&&&&&&&&&&&&&&&&&*&&&&&&+",
";+++++++++++++++++++++++++++++++",
";;;;;;;;;;;;;;;;;;;;;;;;;;;;;;;+",
";&&&&&&&&&&&&&&&&&&&&&&&&&&&&&&+",
";&&&&&**&&&&&&&&&&&&&&&&&&&&&&&+",
";&&&&;,1<,;&&&&&&&&&&;,<<,;&&&&+",
";&&&><,-**;&&&&&&&&&><,-**;**&&+",
";&&;1:&&*&*&@&&&&&&;1:*&&&&&@&&+",
";&&,,**&&&&&$#&&&&&,,*&&&&&&$#&+",
";&&<-*&&&&&&&X&&&&&<;&&&&&&&&X&+",
";&&<*&&&&&&&&.*&&&&<*&&&&&&&* &+",
";&&,*&&&&&&&# &&&&&,*&&&&&&&# &+",
";&&;;&&&&&&&oo&&&&&;;&&&&&*&oo&+",
";&&&-&&&&&&+ #&&&&&&-&&&&&*+ $&+",
";&&&&@$&&$o +&&&&&&&&@#&&$o.+&&+",
";&&&&&$X..o$*&&&&&&&&&#X  o$&&&+",
";&&&&&&&*&&&&&&&&&&&&&&&&&**&&&+",
";&&&&&&&&&&&&&&&&&&&&&&&&&&&&&&+",
";&&&&&&&&&&&&&&&&&&&&&&&&&&&&&&+",
";&&&&&&&&&&&&&&&&&&&&&&&&&&&&&&+",
";&&&&&&&&&&&&&&&&&&&&&&&&&&&&&&+",
";&&&&;,<<,;&&&&&&&&&&;,<<,;&&&&+",
";&&&><,;&*;-&&&&&&&&>1,-&*;-&&&+",
";&&;<:&*&&&&@&&&&&&;<:**&&&&@&&+",
";&*,,&&&&&&&$#&&&&*,,&**&&&&$#&+",
";&*<-&&&&&&&&X&&&&*<-&&&&&&&&X&+",
";&&<**&&&&&&&.*&&&&<***&&&&&&.*+",
";&&,*&&&&&&&$.&&&&&,**&&&&&&$.&+",
";&&;;&&&&&&&oo&&&&&;-*&&&&&&oo&+",
";&&&*&&&&&&+ $&&&&&&-&&&&&&+ $&+",
";&&&&@$&&$o +*&&&&&&&@$&&$o +*&+",
";&&&&&#X..o$&&&&&&&&&&#X..o$&&&+",
";&&&&&&&&&&&&&&&&&&&&&&&&&&&&&&+",
";+++++++++++++++++++++++++++++++",
";;;;;;;;;;;;;;;;;;;;;;;;;;;;;;;+",
";&&&&&&&&&&&&&&&&&&&&&&&&&&&&&&+",
";&&&&&&&&&&&&&&&&&&&&&&&&&&&&&&+",
";&&&&;,<<,;&&&&&&&&&&;,<<,;&&&&+",
";&&&><,;**;*&&&&&&&&><,;**;*&&&+",
";&&;<:&&&&&*@&&&&&&;<:&&&&&*@&&+",
";&&,,&&&&&&&##&&&&&,,&&&&&&&##&+",
";&&<;&&&&&&&&X&&&&&<;&&&&&&&&X&+",
";&&<*&&&&&&&& &&&&&<*&&&&&&&& &+",
";&&,*&&&&&&&# &&&&&,*&&&&&&&# &+",
";&&;;&&&&&**oo*&&&&;;&&&&&**oo*+",
";&&&*&&&&&&+.$*&&&&&*&&&&&&+.$*+",
";&&&*@$&&$o +&&&&&&&*@$&&$o +&&+",
";&&&&&#X. o$&&&&&&&&&&#X. o$&&&+",
";&&&&&&&&&&&&&&&&&&&&&&&&&&&&&&+",
";&&&&&&&&&&&&&&&&&&&&&&&&&&&&&&+",
";&&&&&&&&&&&&&&&&&&&&&&&&&&&&&&+",
";&&&&&&&&&&&&&&&&&&&&&&&&&&&&&&+",
";&&&&&**&&&&&&&&&&&&&&&&&&&&&&&+",
";&&&&;,1<,;&&&&&&&&&&;,<<,;&&&&+",
";&&&><,-**;&&&&&&&&&><,-**;**&&+",
";&&;1:&&*&*&@&&&&&&;1:*&&&&&@&&+",
";&&,,**&&&&&$#&&&&&,,*&&&&&&$#&+",
";&&<-*&&&&&&&X&&&&&<;&&&&&&&&X&+",
";&&<*&&&&&&&&.*&&&&<*&&&&&&&&.&+",
";&&,*&&&&&&&# &&&&&,*&&&&&&&$ &+",
";&&;;&&&&&&&oo&&&&&;;&&&&&&&oo&+",
";&&&-&&&&&&+ #&&&&&&-&&&&&*+ $&+",
";&&&&@$&&$o +&&&&&&&&@$&&$o.+&&+",
";&&&&&$X..o$*&&&&&&&&&#X .o$&&&+",
";&&&&&&&*&&&&&&&&&&&&&&&&&*&&&&+",
";+++++++++++++++++++++++++++++++",
";;;;;;;;;;;;;;;;;;;;;;;;;;;;;;;+",
";&&&&&&&&&&&&&&&&&&&&&&&&&&&&&&+",
";&&&&&&&&&&&&&&&&&&&&&&*&&&&&&&+",
";&&&&;,<<,;&&&&&&&&&&;,1<,;&&&&+",
";&&&><,;&*;-&&&&&&&&><,-**;&&&&+",
";&&;<:&*&&&&@&&&&&&;<:&&*&*&@&&+",
";&*,,&&&&&&&$#&&&&&,,&&&&&&&$#&+",
";&*<-&&&&&&&&X&&&&&<;*&&&&&&&X&+",
";&&<**&&&&&&&.*&&&&<*&&&&&&&&.*+",
";&&,*&&&&&&&$.&&&&&,*&&&&&&&# &+",
";&&;;&&&&&&&oo&&&&&;;&&&&&&&oo&+",
";&&&*&&&&&&+ $&&&&&&-&&&&&&+ #&+",
";&&&&@$&&$o +*&&&&&&&@$&&$o +&&+",
";&&&&&#X..o$&&&&&&&&&&$X..o$*&&+",
";&&&&&&&&&&&&&&&&&&&&&&&*&&&&&&+",
";&&&&&&&&&&&&&&&&&&&&&&&&&&&&&&+",
";&&&&&&&&&&&&&&&&&&&&&&&&&&&&&&+",
";&&&&&&&&&&&&&&&&&&&&&&&&&&&&&&+",
";&&&&&&&&&&&&&&&&&&&&&**&&&&&&&+",
";&&&&;,<<,;&&&&&&&&&&;,1<,;&&&&+",
";&&&><,;**;*&&&&&&&&><,-**;&&&&+",
";&&;<:&&&&&*@&&&&&&;<:&&*&*&@&&+",
";&&,,&&&&&&&##&&&&&,,**&&&&&$#&+",
";&&<;&&&&&&&&X&&&&&<-**&&&&&&X&+",
";&&<*&&&&&&&& &&&&&<*&&&&&&&&.*+",
";&&,*&&&&&&&# &&&&&,*&&&&&&&# &+",
";&&;;&&&&&**oo*&&&&;;&&&&&&&oo&+",
";&&&*&&&&&&+.$*&&&&&-&&&&&&+ #&+",
";&&&*@$&*#o +&&&&&&&&@$&&$o +&&+",
";&&&&&#X  o$&&&&&&&&&&$X..o$*&&+",
";&&&&&&&&&&&&&&&&&&&&&&&*&&&&&&+",
";+++++++++++++++++++++++++++++++",
";;;;;;;;;;;;;;;;;;;;;;;;;;;;;;;+",
";&&&&&&&&&&&&&&&&&&&&&&&&&&&&&&+",
";&&&&&**&&&&&&&&&&&&&&&&&&&&&&&+",
";&&&&;,1<,;&&&&&&&&&&;,<<,;&&&&+",
";&&&><,-**;&&&&&&&&&><,-**;**&&+",
";&&;1:&&*&*&@&&&&&&;1:*&&&&&@&&+",
";&&,,**&&&&&$#&&&&&,,*&&&&&&$#&+",
";&&<-*&&&&&&&X&&&&&<;&&&&&&&&X&+",
";&&<*&&&&&&&&.*&&&&<*&&&&&&&* &+",
";&&,*&&&&&&&# &&&&&,*&&&&&&&# &+",
";&&;;&&&&&&&oo&&&&&;;&&&&&*&oo&+",
";&&&-&&&&&&+ #&&&&&&-&&&&&*+ $&+",
";&&&&@$&&$o +&&&&&&&&@#&&$o.+&&+",
";&&&&&$X..o$*&&&&&&&&&#X  o$&&&+",
";&&&&&&&*&&&&&&&&&&&&&&&&&**&&&+",
";&&&&&&&&&&&&&&&&&&&&&&&&&&&&&&+",
";&&&&&&&&&&&&&&&&&&&&&&&&&&&&&&+",
";&&&&&&&&&&&&&&&&&&&&&&&&&&&&&&+",
";&&&&&&&&&&&&&&&&&&&&&&&&&&&&&&+",
";&&&&;,<<,;&&&&&&&&&&;,<<,;&&&&+",
";&&&><,;&*;-&&&&&&&&>1,-&*;-&&&+",
";&&;<:&*&&&&@&&&&&&;<:**&&&&@&&+",
";&*,,&&&&&&&$#&&&&*,,&**&&&&$#&+",
";&*<-&&&&&&&&X&&&&*<-&&&&&&&&X&+",
";&&<**&&&&&&&.*&&&&<***&&&&&&.*+",
";&&,*&&&&&&&$.&&&&&,**&&&&&&$.&+",
";&&;;&&&&&&&oo&&&&&;-*&&&&&&oo&+",
";&&&*&&&&&&+ $&&&&&&-&&&&&&+ $&+",
";&&&&@$&&$o +*&&&&&&&@$&&$o +*&+",
";&&&&&#X..o$&&&&&&&&&&#X..o$&&&+",
";&&&&&&&&&&&&&&&&&&&&&&&&&&&&&&+",
";+++++++++++++++++++++++++++++++",
";;;;;;;;;;;;;;;;;;;;;;;;;;;;;;;+",
";&&&&&&&&&&&&&&&&&&&&&&&&&&&&&&+",
";&&&&&&&&&&&&&&&&&&&&&&&&&&&&&&+",
";&&&&;,<<,;&&&&&&&&&&;,<<,;&&&&+",
";&&&><,;**;*&&&&&&&&><,;**;*&&&+",
";&&;<:&&&&&*@&&&&&&;<:&&&&&*@&&+",
";&&,,&&&&&&&##&&&&&,,&&&&&&&##&+",
";&&<;&&&&&&&&X&&&&&<;&&&&&&&&X&+",
";&&<*&&&&&&&& &&&&&<*&&&&&&&& &+",
";&&,*&&&&&&&# &&&&&,*&&&&&&&# &+",
";&&;;&&&&&**oo*&&&&;;&&&&&**oo*+",
";&&&*&&&&&&+.$*&&&&&*&&&&&&+.$*+",
";&&&*@$&&$o +&&&&&&&*@$&&$o +&&+",
";&&&&&#X. o$&&&&&&&&&&#X. o$&&&+",
";&&&&&&&&&&&&&&&&&&&&&&&&&&&&&&+",
";&&&&&&&&&&&&&&&&&&&&&&&&&&&&&&+",
";&&&&&&&&&&&&&&&&&&&&&&&&&&&&&&+",
";&&&&&&&&&&&&&&&&&&&&&&&&&&&&&&+",
";&&&&&**&&&&&&&&&&&&&&&&&&&&&&&+",
";&&&&;,1<,;&&&&&&&&&&;,<<,;&&&&+",
";&&&><,-**;&&&&&&&&&><,-**;**&&+",
";&&;1:&&*&*&@&&&&&&;1:*&&&&&@&&+",
";&&,,**&&&&&$#&&&&&,,*&&&&&&$#&+",
";&&<-*&&&&&&&X&&&&&<;&&&&&&&&X&+",
";&&<*&&&&&&&&.*&&&&<*&&&&&&&&.&+",
";&&,*&&&&&&&# &&&&&,*&&&&&&&$ &+",
";&&;;&&&&&&&oo&&&&&;;&&&&&&&oo&+",
";&&&-&&&&&&+ #&&&&&&-&&&&&*+ $&+",
";&&&&@$&&$o +&&&&&&&&@$&&$o.+&&+",
";&&&&&$X..o$*&&&&&&&&&#X .o$&&&+",
";&&&&&&&*&&&&&&&&&&&&&&&&&*&&&&+",
";+++++++++++++++++++++++++++++++"
};
