/* XPM */
static char *ad3f7ee83dbc4133eecd713329cb0ae9ZshButaOx1m5Q7PS[] = {
/* columns rows colors chars-per-pixel */
"32 32 14 1 ",
"  c #AFAFAF",
". c gray70",
"X c gray76",
"o c #C5C5C5",
"O c LightGray",
"+ c #D5D5D5",
"@ c #DDDDDD",
"# c gray89",
"$ c #E7E7E7",
"% c gray92",
"& c #ECECEC",
"* c gray94",
"= c #F6F6F6",
"- c #F9F9F9",
/* pixels */
"**************************&****+",
"*------------------------------+",
"*------------------------------+",
"*----=&&&&=----------=&&&*=----+",
"*---*&*---=&--------=%*==-=&---O",
"*--=&*------@------=&*------@--+",
"*--&*-------$#-----&*-------$#-O",
"*--&=-------*X-----&=------==X-+",
"*--&--------=.-----&--------=.-O",
"*--*=-------$.-----*--------$.-+",
"*--==-------XX-----==-------oX-O",
"*---&------+ $------&------+ #-+",
"*----@$==$o O--------@$*=$X O--+",
"*-----#X..X#----------#X..X$---O",
"*------------------------------+",
"*------------------------------O",
"*------------------------------O",
"*------------------------------+",
"*---------=--------------------O",
"*----=&&&&=----------=&&&*=----+",
"*---*&*---=&--------*&*==-=&---O",
"*--=&*------@------=%=------@--+",
"*--&*-------$#-----&&-------$#-O",
"*--&=-------=X-----&-------==X-+",
"*--&--------=.-----&--------=.-O",
"*--*--------$.-----&=-------$.-+",
"*--==-------XX=----==-------oX-O",
"*---&------+ $------&------+ #-+",
"*----@%*=$o O--------@$==$o O--+",
"*-----$X..X#----------#X..X#---O",
"*-----=------------------------+",
"&+O+O+O+O+O+O+O+++++O+O+OO+O+O+O"
};
