/* XPM */
static char *_ee773f447e541dacf26c5adc5e0299f3txg1n0Nu3bsI6Xg[] = {
/* columns rows colors chars-per-pixel */
"32 32 31 1 ",
"  c #B3951D",
". c #B7981E",
"X c #C6A521",
"o c #C7A521",
"O c #C9A720",
"+ c #D8B424",
"@ c #D9B424",
"# c #DAB524",
"$ c #E3BD26",
"% c #E9C226",
"& c #EBC427",
"* c #ECC426",
"= c #FBD129",
"- c #FBD02A",
"; c #FFD42A",
": c #FFD531",
"> c #FFD737",
", c #F4D24D",
"< c #F5D34D",
"1 c #FFDB4F",
"2 c #FEDB52",
"3 c #FEDC54",
"4 c #FEDC57",
"5 c #FCDF6D",
"6 c #FDE277",
"7 c #FCE68F",
"8 c #FBE797",
"9 c #FCE794",
"0 c #FBECB3",
"q c #FBEDB5",
"w c #FBEEBC",
/* pixels */
"3333333323223333333342233323333#",
"3;;;;;;;;;;;;;;;;;;;;;;;;;;;;;;#",
"3;;;;;;;;;;;;;;;;;;;;;;;;;;;;;;+",
"3;;;;38qq93;;;;;;;;;;380q82;;;;#",
"3;;;6w91:>2<;;;;;;;;6w71:>2<;;;+",
"3;;3w5;;;;;;$;;;;;;4w5;;;;;;$;;+",
"3;;87;;;;;;;%%;;;;;89;;;;;;;&%;+",
"3;;01;;;;;;;-X;;;;;q1;;;;;;;-X;+",
"3;;0:;;;;;;;;.;;;;;0:;;;;;;;-.;#",
"3;;8>;;;;;;;%.;;;;;8>;;;;;;;%.;+",
"2;;22;;;;;;;OX;;;;;32;;;;;;;OO;+",
"3;;;<;;;;;;# %;;;;;;,;;;;;;+ %;+",
"3;;;;$&--&O #;;;;;;;;$*;-&O +;;+",
"3;;;;;%X..X%;;;;;;;;;;%X..X%;;;+",
"3;;;;;;;;;;;;;;;;;;;;;;;;;;;;;;+",
"3;;;;;;;;;;;;;;;;;;;;;;;;;;;;;;+",
"3;;;;;;;;;;;;;;;;;;;;;;;;;;;;;;+",
"3;;;;;;;;;;;;;;;;;;;;;;;;;;;;;;+",
"3;;;;;;;;;;;;;;;;;;;;;;;;;;;;;;+",
"3;;;;280082;;;;;;;;;;380082;;;;+",
"3;;;6w71;>3<;;;;;;;;6w71:>2<;;;+",
"3;;4w5;;;;;;$;;;;;;3w5;;;;;;$;;+",
"4;;87;;;;;;;*%;;;;;89;;;;;;;*$;+",
"2;;q2;;;;;;;=X;;;;;01;;;;;;;;X;+",
"3;;0;;;;;;;;-.;;;;;0:;;;;;;;-.;+",
"3;;8>;;;;;;;%.;;;;;8>;;;;;;;%.;+",
"3;;34;;;;;;;OX;;;;;32;;;;;;;OO;+",
"3;;;<;;;;;;@ %;;;;;;<;;;;;;+ %;+",
"2;;;;$%;-%O.@;;;;;;;;$%-;%O +;;+",
"3;;;;;%X..X%;;;;;;;;;;%X..X%;;;+",
"3;;;;;;;;;;;;;;;;;;;;;;;;;;;;;;+",
"3+++++++@@@@@@@@@@@@++++++++++++"
};
